PathFileType	4	(X/Y/Z)	./resultDataOpenSim/trcMotMarkerGrf/sub10/qtm-02-03.trc
DataRate	CameraRate	NumFrames	NumMarkers	Units	OrigDataRate	OrigDataStartFrame	OrigNumFrames
250.000000	250.000000	7	24	m	250.000000	120	477
Frame#	Time	L.Toe.Tip			R.Toe.Tip			L.Ankle.Lat			R.Ankle.Lat			L.Ankle.Med			R.Ankle.Med			L.Heel			R.Heel			L.Knee.Lat			R.Knee.Lat			L.Knee.Med			R.Knee.Med			L.Thigh.Upper			R.Thigh.Upper			L.ASIS			R.ASIS			V.Sacral			L.Acromium			R.Acromium			C7			L.Elbow			R.Elbow			L.Wrist.Lat			R.Wrist.Lat
		X1	Y1	Z1	X2	Y2	Z2	X3	Y3	Z3	X4	Y4	Z4	X5	Y5	Z5	X6	Y6	Z6	X7	Y7	Z7	X8	Y8	Z8	X9	Y9	Z9	X10	Y10	Z10	X11	Y11	Z11	X12	Y12	Z12	X13	Y13	Z13	X14	Y14	Z14	X15	Y15	Z15	X16	Y16	Z16	X17	Y17	Z17	X18	Y18	Z18	X19	Y19	Z19	X20	Y20	Z20	X21	Y21	Z21	X22	Y22	Z22	X23	Y23	Z23	X24	Y24	Z24

120	0.476	-0.45156826	0.062455415	-0.10009924	-0.72218098	0.039821499	0.045582633	-0.58470101	0.092021852	-0.10130842	-0.8657233	0.056398458	0.072347238	-0.55817876	0.11391275	-0.021581919	-0.84229802	0.082533301	-0.010033494	-0.63993962	0.062644667	-0.043110456	-0.91345124	0.032561072	0.021300774	-0.52284485	0.47917035	-0.13994869	-0.77825663	0.45090199	0.11957909	-0.49587875	0.45855122	-0.020901619	-0.76409055	0.45131722	-0.0097212518	-0.65590762	0.8348646	-0.20807761	-0.71769753	0.86312615	0.16874286	-0.61794603	0.94993145	-0.13838954	-0.63649481	0.95157927	0.1036981	-0.82627936	0.96229316	-0.03514456	-0.69449694	1.4288771	-0.17209059	-0.72691607	1.4137917	0.15023863	-0.79272722	1.4436415	-0.022384735	-0.7806651	1.0991337	-0.22880306	-0.78198671	1.0655659	0.19853254	-0.66654205	0.88277719	-0.24362773	-0.62463435	0.87935838	0.24209575
121	0.48	-0.4321783	0.063809452	-0.099086756	-0.72234495	0.039784691	0.04553516	-0.56605298	0.089553859	-0.10014724	-0.8658401	0.056413457	0.07221427	-0.54016482	0.11239331	-0.020463309	-0.84225759	0.082486064	-0.010122325	-0.62046228	0.058792399	-0.041736872	-0.9134948	0.032554162	0.021182161	-0.51574685	0.47864883	-0.13965579	-0.77660667	0.4506234	0.11963745	-0.48810385	0.45846775	-0.020604591	-0.76217564	0.45083852	-0.0096438717	-0.64938987	0.83453163	-0.20799763	-0.71367891	0.86235245	0.16876411	-0.6117895	0.94920396	-0.13792715	-0.63106992	0.95046512	0.10429338	-0.82076409	0.96194745	-0.035241855	-0.68902846	1.4280196	-0.1717594	-0.72107276	1.4130271	0.15060023	-0.78703195	1.4427874	-0.022190054	-0.77626876	1.0987823	-0.22906994	-0.77426675	1.0643107	0.19965061	-0.66433419	0.8815767	-0.24436252	-0.61352346	0.8804384	0.24182726
122	0.484	-0.41282657	0.065284037	-0.097960286	-0.72247357	0.039719348	0.045502041	-0.54730459	0.087311588	-0.099025303	-0.86591522	0.056424331	0.072079582	-0.52213894	0.11112485	-0.01939924	-0.84220583	0.082418133	-0.010226953	-0.60117948	0.055508031	-0.040432784	-0.91354303	0.032542496	0.021059836	-0.50869102	0.47792414	-0.139428	-0.77477456	0.45029422	0.11965506	-0.48053771	0.4582914	-0.020472769	-0.7600906	0.45035852	-0.0096253197	-0.64278376	0.83411884	-0.20793732	-0.70966652	0.86155351	0.16877537	-0.60554441	0.94839562	-0.1374478	-0.62557761	0.94931808	0.10493272	-0.81516358	0.96143783	-0.035508585	-0.68354384	1.4270695	-0.17142911	-0.71522345	1.412164	0.15096686	-0.78124053	1.4418506	-0.021721693	-0.77203417	1.0983767	-0.2291446	-0.76652494	1.0629791	0.20077018	-0.66207922	0.88034437	-0.24507121	-0.60243262	0.88150428	0.24153063
123	0.488	-0.39350528	0.06689424	-0.096688006	-0.72255876	0.039664613	0.045488842	-0.52853508	0.085296777	-0.097962481	-0.86593934	0.056438141	0.071944329	-0.50412827	0.11010052	-0.018370525	-0.84211759	0.082328824	-0.010344472	-0.58197328	0.052678746	-0.039195785	-0.91359172	0.032531465	0.020934735	-0.5016772	0.47700358	-0.13925914	-0.77277112	0.44990881	0.11962441	-0.47313456	0.45799218	-0.020429112	-0.75782484	0.44986749	-0.0096833403	-0.63619823	0.83360646	-0.20790395	-0.7056728	0.86073351	0.16878311	-0.59918791	0.94750381	-0.13694129	-0.62024916	0.94810013	0.10554404	-0.80945628	0.96073714	-0.036020905	-0.67800212	1.4260163	-0.17111117	-0.7093549	1.4112076	0.1513269	-0.77542404	1.4408396	-0.021198559	-0.76792245	1.0979112	-0.22907591	-0.75875791	1.0615716	0.2018885	-0.65978944	0.87907633	-0.24576067	-0.59136862	0.88255014	0.24119925
124	0.492	-0.37425287	0.068646492	-0.095248651	-0.72260657	0.039638689	0.045491031	-0.50978599	0.083512803	-0.096975952	-0.86593165	0.056469736	0.071819051	-0.48619986	0.10930662	-0.017354394	-0.84198443	0.082224116	-0.01048404	-0.56274285	0.050068882	-0.038134807	-0.91363537	0.032527481	0.020794727	-0.49470658	0.47590351	-0.1391418	-0.77059957	0.4494593	0.11954227	-0.46585975	0.45754548	-0.020407802	-0.75539977	0.44935674	-0.0098129417	-0.62968149	0.83298602	-0.20786827	-0.70169336	0.85988713	0.16877622	-0.59271933	0.9465333	-0.13641126	-0.61514238	0.94680674	0.10609712	-0.80363784	0.95984276	-0.036797909	-0.67235328	1.4248655	-0.17081214	-0.70346405	1.4101675	0.15167986	-0.76961314	1.4397564	-0.020710579	-0.76384947	1.0973766	-0.22897878	-0.75096758	1.0600846	0.20300349	-0.6574682	0.87777062	-0.24644247	-0.58031334	0.88357061	0.24082483
125	0.496	-0.35511461	0.070549091	-0.093633811	-0.72262688	0.039625598	0.04549472	-0.49104853	0.081959693	-0.096053296	-0.86593855	0.056530959	0.071713836	-0.46843944	0.10872723	-0.016372797	-0.84181117	0.082110764	-0.010655533	-0.54352536	0.047576628	-0.037343426	-0.91366958	0.032536816	0.020611303	-0.48777029	0.4746523	-0.13906995	-0.76825905	0.44893915	0.11941416	-0.45871313	0.45694677	-0.020389987	-0.75283803	0.44881483	-0.0099978798	-0.62314466	0.83226948	-0.20779501	-0.69771916	0.85901039	0.16874443	-0.58611801	0.9454903	-0.13585461	-0.61018186	0.94545711	0.10660708	-0.79772715	0.9587867	-0.037775857	-0.6666157	1.4236459	-0.170537	-0.69754909	1.4090496	0.15203206	-0.76380897	1.4386009	-0.020263389	-0.75976491	1.0967649	-0.22892606	-0.74315857	1.0585136	0.20411242	-0.65510958	0.8764262	-0.24712076	-0.5692393	0.88456427	0.24040314
126	0.5	-0.33612208	0.072609548	-0.09184118	-0.72262435	0.039586578	0.045488009	-0.47232191	0.08062292	-0.095168408	-0.86597314	0.056608399	0.071611749	-0.45090069	0.10834332	-0.015480773	-0.84160978	0.081994434	-0.010860371	-0.52442597	0.045280132	-0.036823504	-0.91369307	0.032565223	0.020357586	-0.48084734	0.47327833	-0.13903224	-0.765768	0.44835109	0.11924812	-0.4517182	0.45620818	-0.020391803	-0.7501394	0.44822619	-0.010222258	-0.61641538	0.83147306	-0.20768732	-0.69375605	0.85810464	0.16869999	-0.57936967	0.94437299	-0.13526738	-0.60527797	0.94407042	0.10709801	-0.79175419	0.95761973	-0.038840438	-0.66089168	1.4223938	-0.1702967	-0.69160223	1.4078506	0.15238137	-0.7580026	1.4373736	-0.019844503	-0.75566249	1.0960741	-0.22892463	-0.7353422	1.0568577	0.2052148	-0.65270226	0.87504336	-0.24778787	-0.55815775	0.88553253	0.23994041
